STARTFONT 2.1
COMMENT https://github.com/pinterior/towns-font
FONT -CaptainYS-Gothic-Medium-R-Normal--8-80-75-75-C-80-JISX0201.1976-0
SIZE 8 75 75
FONTBOUNDINGBOX 8 8 0 -1
STARTPROPERTIES 19
FONTNAME_REGISTRY ""
FOUNDRY "CaptainYS"
FAMILY_NAME "Gothic"
WEIGHT_NAME "Medium"
SLANT "R"
SETWIDTH_NAME "Normal"
ADD_STYLE_NAME ""
PIXEL_SIZE 8
POINT_SIZE 80
RESOLUTION_X 75
RESOLUTION_Y 75
SPACING "C"
AVERAGE_WIDTH 80
CHARSET_REGISTRY "JISX0201.1976"
CHARSET_ENCODING "0"
DEFAULT_CHAR 32
FONT_DESCENT 1
FONT_ASCENT 7
_GBDFED_INFO "Edited with gbdfed 1.6."
ENDPROPERTIES
CHARS 158
STARTCHAR 0x0020
ENCODING 32
SWIDTH 960 0
DWIDTH 8 0
BBX 8 8 0 -1
BITMAP
00
00
00
00
00
00
00
00
ENDCHAR
STARTCHAR 0x0021
ENCODING 33
SWIDTH 960 0
DWIDTH 8 0
BBX 8 8 0 -1
BITMAP
18
18
18
18
10
00
10
00
ENDCHAR
STARTCHAR 0x0022
ENCODING 34
SWIDTH 960 0
DWIDTH 8 0
BBX 8 8 0 -1
BITMAP
28
28
28
00
00
00
00
00
ENDCHAR
STARTCHAR 0x0023
ENCODING 35
SWIDTH 960 0
DWIDTH 8 0
BBX 8 8 0 -1
BITMAP
28
28
7C
28
7C
28
28
00
ENDCHAR
STARTCHAR 0x0024
ENCODING 36
SWIDTH 960 0
DWIDTH 8 0
BBX 8 8 0 -1
BITMAP
10
3C
50
7C
14
78
10
00
ENDCHAR
STARTCHAR 0x0025
ENCODING 37
SWIDTH 960 0
DWIDTH 8 0
BBX 8 8 0 -1
BITMAP
E2
A4
E8
10
2E
4A
8E
00
ENDCHAR
STARTCHAR 0x0026
ENCODING 38
SWIDTH 960 0
DWIDTH 8 0
BBX 8 8 0 -1
BITMAP
38
28
10
28
4A
44
3A
00
ENDCHAR
STARTCHAR 0x0027
ENCODING 39
SWIDTH 960 0
DWIDTH 8 0
BBX 8 8 0 -1
BITMAP
18
18
10
00
00
00
00
00
ENDCHAR
STARTCHAR 0x0028
ENCODING 40
SWIDTH 960 0
DWIDTH 8 0
BBX 8 8 0 -1
BITMAP
08
10
20
20
20
10
08
00
ENDCHAR
STARTCHAR 0x0029
ENCODING 41
SWIDTH 960 0
DWIDTH 8 0
BBX 8 8 0 -1
BITMAP
20
10
08
08
08
10
20
00
ENDCHAR
STARTCHAR 0x002a
ENCODING 42
SWIDTH 960 0
DWIDTH 8 0
BBX 8 8 0 -1
BITMAP
10
54
38
10
38
54
10
00
ENDCHAR
STARTCHAR 0x002b
ENCODING 43
SWIDTH 960 0
DWIDTH 8 0
BBX 8 8 0 -1
BITMAP
00
10
10
7C
10
10
00
00
ENDCHAR
STARTCHAR 0x002c
ENCODING 44
SWIDTH 960 0
DWIDTH 8 0
BBX 8 8 0 -1
BITMAP
00
00
00
00
18
18
10
00
ENDCHAR
STARTCHAR 0x002d
ENCODING 45
SWIDTH 960 0
DWIDTH 8 0
BBX 8 8 0 -1
BITMAP
00
00
00
7C
00
00
00
00
ENDCHAR
STARTCHAR 0x002e
ENCODING 46
SWIDTH 960 0
DWIDTH 8 0
BBX 8 8 0 -1
BITMAP
00
00
00
00
18
18
00
00
ENDCHAR
STARTCHAR 0x002f
ENCODING 47
SWIDTH 960 0
DWIDTH 8 0
BBX 8 8 0 -1
BITMAP
02
04
08
10
20
40
80
00
ENDCHAR
STARTCHAR 0x0030
ENCODING 48
SWIDTH 960 0
DWIDTH 8 0
BBX 8 8 0 -1
BITMAP
7C
86
8A
92
A2
C2
7C
00
ENDCHAR
STARTCHAR 0x0031
ENCODING 49
SWIDTH 960 0
DWIDTH 8 0
BBX 8 8 0 -1
BITMAP
10
30
10
10
10
10
38
00
ENDCHAR
STARTCHAR 0x0032
ENCODING 50
SWIDTH 960 0
DWIDTH 8 0
BBX 8 8 0 -1
BITMAP
7C
82
82
0C
30
40
FE
00
ENDCHAR
STARTCHAR 0x0033
ENCODING 51
SWIDTH 960 0
DWIDTH 8 0
BBX 8 8 0 -1
BITMAP
7C
82
02
1C
02
82
7C
00
ENDCHAR
STARTCHAR 0x0034
ENCODING 52
SWIDTH 960 0
DWIDTH 8 0
BBX 8 8 0 -1
BITMAP
38
28
48
48
88
FE
08
00
ENDCHAR
STARTCHAR 0x0035
ENCODING 53
SWIDTH 960 0
DWIDTH 8 0
BBX 8 8 0 -1
BITMAP
FE
80
FC
02
02
82
7C
00
ENDCHAR
STARTCHAR 0x0036
ENCODING 54
SWIDTH 960 0
DWIDTH 8 0
BBX 8 8 0 -1
BITMAP
7E
80
80
FC
82
82
7C
00
ENDCHAR
STARTCHAR 0x0037
ENCODING 55
SWIDTH 960 0
DWIDTH 8 0
BBX 8 8 0 -1
BITMAP
FE
02
04
08
10
20
20
00
ENDCHAR
STARTCHAR 0x0038
ENCODING 56
SWIDTH 960 0
DWIDTH 8 0
BBX 8 8 0 -1
BITMAP
7C
82
82
7C
82
82
7C
00
ENDCHAR
STARTCHAR 0x0039
ENCODING 57
SWIDTH 960 0
DWIDTH 8 0
BBX 8 8 0 -1
BITMAP
7C
82
82
7E
02
02
FC
00
ENDCHAR
STARTCHAR 0x003a
ENCODING 58
SWIDTH 960 0
DWIDTH 8 0
BBX 8 8 0 -1
BITMAP
18
18
00
00
18
18
00
00
ENDCHAR
STARTCHAR 0x003b
ENCODING 59
SWIDTH 960 0
DWIDTH 8 0
BBX 8 8 0 -1
BITMAP
18
18
00
00
18
18
30
00
ENDCHAR
STARTCHAR 0x003c
ENCODING 60
SWIDTH 960 0
DWIDTH 8 0
BBX 8 8 0 -1
BITMAP
08
10
20
40
20
10
08
00
ENDCHAR
STARTCHAR 0x003d
ENCODING 61
SWIDTH 960 0
DWIDTH 8 0
BBX 8 8 0 -1
BITMAP
00
00
7C
00
7C
00
00
00
ENDCHAR
STARTCHAR 0x003e
ENCODING 62
SWIDTH 960 0
DWIDTH 8 0
BBX 8 8 0 -1
BITMAP
40
20
10
08
10
20
40
00
ENDCHAR
STARTCHAR 0x003f
ENCODING 63
SWIDTH 960 0
DWIDTH 8 0
BBX 8 8 0 -1
BITMAP
38
44
04
18
10
00
10
00
ENDCHAR
STARTCHAR 0x0040
ENCODING 64
SWIDTH 960 0
DWIDTH 8 0
BBX 8 8 0 -1
BITMAP
38
44
5C
54
5C
40
7C
00
ENDCHAR
STARTCHAR 0x0041
ENCODING 65
SWIDTH 960 0
DWIDTH 8 0
BBX 8 8 0 -1
BITMAP
38
44
82
82
FE
82
82
00
ENDCHAR
STARTCHAR 0x0042
ENCODING 66
SWIDTH 960 0
DWIDTH 8 0
BBX 8 8 0 -1
BITMAP
FC
82
82
FC
82
82
FC
00
ENDCHAR
STARTCHAR 0x0043
ENCODING 67
SWIDTH 960 0
DWIDTH 8 0
BBX 8 8 0 -1
BITMAP
3C
42
80
80
80
42
3C
00
ENDCHAR
STARTCHAR 0x0044
ENCODING 68
SWIDTH 960 0
DWIDTH 8 0
BBX 8 8 0 -1
BITMAP
F8
84
82
82
82
84
F8
00
ENDCHAR
STARTCHAR 0x0045
ENCODING 69
SWIDTH 960 0
DWIDTH 8 0
BBX 8 8 0 -1
BITMAP
FE
80
80
FE
80
80
FE
00
ENDCHAR
STARTCHAR 0x0046
ENCODING 70
SWIDTH 960 0
DWIDTH 8 0
BBX 8 8 0 -1
BITMAP
FE
80
80
F8
80
80
80
00
ENDCHAR
STARTCHAR 0x0047
ENCODING 71
SWIDTH 960 0
DWIDTH 8 0
BBX 8 8 0 -1
BITMAP
3C
42
80
80
8E
42
3C
00
ENDCHAR
STARTCHAR 0x0048
ENCODING 72
SWIDTH 960 0
DWIDTH 8 0
BBX 8 8 0 -1
BITMAP
82
82
82
FE
82
82
82
00
ENDCHAR
STARTCHAR 0x0049
ENCODING 73
SWIDTH 960 0
DWIDTH 8 0
BBX 8 8 0 -1
BITMAP
38
10
10
10
10
10
38
00
ENDCHAR
STARTCHAR 0x004a
ENCODING 74
SWIDTH 960 0
DWIDTH 8 0
BBX 8 8 0 -1
BITMAP
0E
04
04
04
84
44
38
00
ENDCHAR
STARTCHAR 0x004b
ENCODING 75
SWIDTH 960 0
DWIDTH 8 0
BBX 8 8 0 -1
BITMAP
82
84
88
F0
88
84
82
00
ENDCHAR
STARTCHAR 0x004c
ENCODING 76
SWIDTH 960 0
DWIDTH 8 0
BBX 8 8 0 -1
BITMAP
80
80
80
80
80
80
FE
00
ENDCHAR
STARTCHAR 0x004d
ENCODING 77
SWIDTH 960 0
DWIDTH 8 0
BBX 8 8 0 -1
BITMAP
82
C6
AA
92
82
82
82
00
ENDCHAR
STARTCHAR 0x004e
ENCODING 78
SWIDTH 960 0
DWIDTH 8 0
BBX 8 8 0 -1
BITMAP
82
C2
A2
92
8A
86
82
00
ENDCHAR
STARTCHAR 0x004f
ENCODING 79
SWIDTH 960 0
DWIDTH 8 0
BBX 8 8 0 -1
BITMAP
38
44
82
82
82
44
38
00
ENDCHAR
STARTCHAR 0x0050
ENCODING 80
SWIDTH 960 0
DWIDTH 8 0
BBX 8 8 0 -1
BITMAP
FC
82
82
FC
80
80
80
00
ENDCHAR
STARTCHAR 0x0051
ENCODING 81
SWIDTH 960 0
DWIDTH 8 0
BBX 8 8 0 -1
BITMAP
38
44
82
82
8A
44
3A
00
ENDCHAR
STARTCHAR 0x0052
ENCODING 82
SWIDTH 960 0
DWIDTH 8 0
BBX 8 8 0 -1
BITMAP
FC
82
82
FC
84
82
82
00
ENDCHAR
STARTCHAR 0x0053
ENCODING 83
SWIDTH 960 0
DWIDTH 8 0
BBX 8 8 0 -1
BITMAP
7C
82
40
38
04
82
7C
00
ENDCHAR
STARTCHAR 0x0054
ENCODING 84
SWIDTH 960 0
DWIDTH 8 0
BBX 8 8 0 -1
BITMAP
FE
10
10
10
10
10
10
00
ENDCHAR
STARTCHAR 0x0055
ENCODING 85
SWIDTH 960 0
DWIDTH 8 0
BBX 8 8 0 -1
BITMAP
82
82
82
82
82
82
7C
00
ENDCHAR
STARTCHAR 0x0056
ENCODING 86
SWIDTH 960 0
DWIDTH 8 0
BBX 8 8 0 -1
BITMAP
82
82
44
44
28
28
10
00
ENDCHAR
STARTCHAR 0x0057
ENCODING 87
SWIDTH 960 0
DWIDTH 8 0
BBX 8 8 0 -1
BITMAP
82
82
82
92
AA
44
44
00
ENDCHAR
STARTCHAR 0x0058
ENCODING 88
SWIDTH 960 0
DWIDTH 8 0
BBX 8 8 0 -1
BITMAP
82
44
28
10
28
44
82
00
ENDCHAR
STARTCHAR 0x0059
ENCODING 89
SWIDTH 960 0
DWIDTH 8 0
BBX 8 8 0 -1
BITMAP
82
44
28
10
10
10
10
00
ENDCHAR
STARTCHAR 0x005a
ENCODING 90
SWIDTH 960 0
DWIDTH 8 0
BBX 8 8 0 -1
BITMAP
FE
04
08
10
20
40
FE
00
ENDCHAR
STARTCHAR 0x005b
ENCODING 91
SWIDTH 960 0
DWIDTH 8 0
BBX 8 8 0 -1
BITMAP
38
20
20
20
20
20
38
00
ENDCHAR
STARTCHAR 0x005c
ENCODING 92
SWIDTH 960 0
DWIDTH 8 0
BBX 8 8 0 -1
BITMAP
80
40
20
10
08
04
02
00
ENDCHAR
STARTCHAR 0x005d
ENCODING 93
SWIDTH 960 0
DWIDTH 8 0
BBX 8 8 0 -1
BITMAP
38
08
08
08
08
08
38
00
ENDCHAR
STARTCHAR 0x005e
ENCODING 94
SWIDTH 960 0
DWIDTH 8 0
BBX 8 8 0 -1
BITMAP
10
28
44
00
00
00
00
00
ENDCHAR
STARTCHAR 0x005f
ENCODING 95
SWIDTH 960 0
DWIDTH 8 0
BBX 8 8 0 -1
BITMAP
00
00
00
00
00
00
7C
00
ENDCHAR
STARTCHAR 0x0060
ENCODING 96
SWIDTH 960 0
DWIDTH 8 0
BBX 8 8 0 -1
BITMAP
20
10
08
00
00
00
00
00
ENDCHAR
STARTCHAR 0x0061
ENCODING 97
SWIDTH 960 0
DWIDTH 8 0
BBX 8 8 0 -1
BITMAP
00
FC
02
7E
82
86
7A
00
ENDCHAR
STARTCHAR 0x0062
ENCODING 98
SWIDTH 960 0
DWIDTH 8 0
BBX 8 8 0 -1
BITMAP
80
80
FC
82
82
82
FC
00
ENDCHAR
STARTCHAR 0x0063
ENCODING 99
SWIDTH 960 0
DWIDTH 8 0
BBX 8 8 0 -1
BITMAP
00
00
7E
80
80
80
7E
00
ENDCHAR
STARTCHAR 0x0064
ENCODING 100
SWIDTH 960 0
DWIDTH 8 0
BBX 8 8 0 -1
BITMAP
02
02
7E
82
82
82
7E
00
ENDCHAR
STARTCHAR 0x0065
ENCODING 101
SWIDTH 960 0
DWIDTH 8 0
BBX 8 8 0 -1
BITMAP
00
00
7C
82
FE
80
7E
00
ENDCHAR
STARTCHAR 0x0066
ENCODING 102
SWIDTH 960 0
DWIDTH 8 0
BBX 8 8 0 -1
BITMAP
1C
10
10
3C
10
10
10
00
ENDCHAR
STARTCHAR 0x0067
ENCODING 103
SWIDTH 960 0
DWIDTH 8 0
BBX 8 8 0 -1
BITMAP
00
00
7E
82
82
FE
02
FC
ENDCHAR
STARTCHAR 0x0068
ENCODING 104
SWIDTH 960 0
DWIDTH 8 0
BBX 8 8 0 -1
BITMAP
80
80
F8
84
82
82
82
00
ENDCHAR
STARTCHAR 0x0069
ENCODING 105
SWIDTH 960 0
DWIDTH 8 0
BBX 8 8 0 -1
BITMAP
10
00
10
10
10
10
10
00
ENDCHAR
STARTCHAR 0x006a
ENCODING 106
SWIDTH 960 0
DWIDTH 8 0
BBX 8 8 0 -1
BITMAP
02
00
02
02
82
82
44
38
ENDCHAR
STARTCHAR 0x006b
ENCODING 107
SWIDTH 960 0
DWIDTH 8 0
BBX 8 8 0 -1
BITMAP
80
80
86
98
E0
98
86
00
ENDCHAR
STARTCHAR 0x006c
ENCODING 108
SWIDTH 960 0
DWIDTH 8 0
BBX 8 8 0 -1
BITMAP
30
10
10
10
10
10
38
00
ENDCHAR
STARTCHAR 0x006d
ENCODING 109
SWIDTH 960 0
DWIDTH 8 0
BBX 8 8 0 -1
BITMAP
00
00
EC
92
92
92
92
00
ENDCHAR
STARTCHAR 0x006e
ENCODING 110
SWIDTH 960 0
DWIDTH 8 0
BBX 8 8 0 -1
BITMAP
00
00
F8
84
82
82
82
00
ENDCHAR
STARTCHAR 0x006f
ENCODING 111
SWIDTH 960 0
DWIDTH 8 0
BBX 8 8 0 -1
BITMAP
00
00
7C
82
82
82
7C
00
ENDCHAR
STARTCHAR 0x0070
ENCODING 112
SWIDTH 960 0
DWIDTH 8 0
BBX 8 8 0 -1
BITMAP
00
00
FC
82
82
82
FC
80
ENDCHAR
STARTCHAR 0x0071
ENCODING 113
SWIDTH 960 0
DWIDTH 8 0
BBX 8 8 0 -1
BITMAP
00
00
7E
82
82
82
7E
02
ENDCHAR
STARTCHAR 0x0072
ENCODING 114
SWIDTH 960 0
DWIDTH 8 0
BBX 8 8 0 -1
BITMAP
00
00
9E
A0
C0
80
80
00
ENDCHAR
STARTCHAR 0x0073
ENCODING 115
SWIDTH 960 0
DWIDTH 8 0
BBX 8 8 0 -1
BITMAP
00
00
7E
80
7E
02
FC
00
ENDCHAR
STARTCHAR 0x0074
ENCODING 116
SWIDTH 960 0
DWIDTH 8 0
BBX 8 8 0 -1
BITMAP
20
20
FC
20
20
20
3C
00
ENDCHAR
STARTCHAR 0x0075
ENCODING 117
SWIDTH 960 0
DWIDTH 8 0
BBX 8 8 0 -1
BITMAP
00
00
82
82
82
86
7A
00
ENDCHAR
STARTCHAR 0x0076
ENCODING 118
SWIDTH 960 0
DWIDTH 8 0
BBX 8 8 0 -1
BITMAP
00
00
82
44
44
28
10
00
ENDCHAR
STARTCHAR 0x0077
ENCODING 119
SWIDTH 960 0
DWIDTH 8 0
BBX 8 8 0 -1
BITMAP
00
00
82
92
AA
44
44
00
ENDCHAR
STARTCHAR 0x0078
ENCODING 120
SWIDTH 960 0
DWIDTH 8 0
BBX 8 8 0 -1
BITMAP
00
00
C6
28
10
28
C6
00
ENDCHAR
STARTCHAR 0x0079
ENCODING 121
SWIDTH 960 0
DWIDTH 8 0
BBX 8 8 0 -1
BITMAP
00
00
82
82
82
7E
02
FC
ENDCHAR
STARTCHAR 0x007a
ENCODING 122
SWIDTH 960 0
DWIDTH 8 0
BBX 8 8 0 -1
BITMAP
00
00
FE
08
10
20
FE
00
ENDCHAR
STARTCHAR 0x007b
ENCODING 123
SWIDTH 960 0
DWIDTH 8 0
BBX 8 8 0 -1
BITMAP
18
20
20
60
20
20
18
00
ENDCHAR
STARTCHAR 0x007c
ENCODING 124
SWIDTH 960 0
DWIDTH 8 0
BBX 8 8 0 -1
BITMAP
10
10
10
10
10
10
10
00
ENDCHAR
STARTCHAR 0x007d
ENCODING 125
SWIDTH 960 0
DWIDTH 8 0
BBX 8 8 0 -1
BITMAP
60
10
10
18
10
10
60
00
ENDCHAR
STARTCHAR 0x007e
ENCODING 126
SWIDTH 960 0
DWIDTH 8 0
BBX 8 8 0 -1
BITMAP
7C
00
00
00
00
00
00
00
ENDCHAR
STARTCHAR 0x00a1
ENCODING 161
SWIDTH 960 0
DWIDTH 8 0
BBX 8 8 0 -1
BITMAP
00
00
00
00
38
28
38
00
ENDCHAR
STARTCHAR 0x00a2
ENCODING 162
SWIDTH 960 0
DWIDTH 8 0
BBX 8 8 0 -1
BITMAP
3C
20
20
20
20
00
00
00
ENDCHAR
STARTCHAR 0x00a3
ENCODING 163
SWIDTH 960 0
DWIDTH 8 0
BBX 8 8 0 -1
BITMAP
00
00
04
04
04
04
3C
00
ENDCHAR
STARTCHAR 0x00a4
ENCODING 164
SWIDTH 960 0
DWIDTH 8 0
BBX 8 8 0 -1
BITMAP
00
00
00
00
20
10
08
00
ENDCHAR
STARTCHAR 0x00a5
ENCODING 165
SWIDTH 960 0
DWIDTH 8 0
BBX 8 8 0 -1
BITMAP
00
00
10
38
10
00
00
00
ENDCHAR
STARTCHAR 0x00a6
ENCODING 166
SWIDTH 960 0
DWIDTH 8 0
BBX 8 8 0 -1
BITMAP
FE
02
02
FE
04
08
70
00
ENDCHAR
STARTCHAR 0x00a7
ENCODING 167
SWIDTH 960 0
DWIDTH 8 0
BBX 8 8 0 -1
BITMAP
00
00
00
3C
04
10
20
00
ENDCHAR
STARTCHAR 0x00a8
ENCODING 168
SWIDTH 960 0
DWIDTH 8 0
BBX 8 8 0 -1
BITMAP
00
00
04
08
38
08
08
00
ENDCHAR
STARTCHAR 0x00a9
ENCODING 169
SWIDTH 960 0
DWIDTH 8 0
BBX 8 8 0 -1
BITMAP
00
00
08
3C
24
08
10
00
ENDCHAR
STARTCHAR 0x00aa
ENCODING 170
SWIDTH 960 0
DWIDTH 8 0
BBX 8 8 0 -1
BITMAP
00
00
3C
10
10
10
7C
00
ENDCHAR
STARTCHAR 0x00ab
ENCODING 171
SWIDTH 960 0
DWIDTH 8 0
BBX 8 8 0 -1
BITMAP
00
00
08
3C
18
28
48
00
ENDCHAR
STARTCHAR 0x00ac
ENCODING 172
SWIDTH 960 0
DWIDTH 8 0
BBX 8 8 0 -1
BITMAP
00
00
10
1C
34
10
10
00
ENDCHAR
STARTCHAR 0x00ad
ENCODING 173
SWIDTH 960 0
DWIDTH 8 0
BBX 8 8 0 -1
BITMAP
00
00
00
1C
04
04
3E
00
ENDCHAR
STARTCHAR 0x00ae
ENCODING 174
SWIDTH 960 0
DWIDTH 8 0
BBX 8 8 0 -1
BITMAP
00
00
1C
04
1C
04
1C
00
ENDCHAR
STARTCHAR 0x00af
ENCODING 175
SWIDTH 960 0
DWIDTH 8 0
BBX 8 8 0 -1
BITMAP
00
00
00
2A
2A
02
1C
00
ENDCHAR
STARTCHAR 0x00b0
ENCODING 176
SWIDTH 960 0
DWIDTH 8 0
BBX 8 8 0 -1
BITMAP
00
00
00
7C
7C
00
00
00
ENDCHAR
STARTCHAR 0x00b1
ENCODING 177
SWIDTH 960 0
DWIDTH 8 0
BBX 8 8 0 -1
BITMAP
FE
02
12
1C
10
20
40
00
ENDCHAR
STARTCHAR 0x00b2
ENCODING 178
SWIDTH 960 0
DWIDTH 8 0
BBX 8 8 0 -1
BITMAP
02
04
08
38
C8
08
08
00
ENDCHAR
STARTCHAR 0x00b3
ENCODING 179
SWIDTH 960 0
DWIDTH 8 0
BBX 8 8 0 -1
BITMAP
10
10
FE
82
02
04
38
00
ENDCHAR
STARTCHAR 0x00b4
ENCODING 180
SWIDTH 960 0
DWIDTH 8 0
BBX 8 8 0 -1
BITMAP
7C
10
10
10
10
10
FE
00
ENDCHAR
STARTCHAR 0x00b5
ENCODING 181
SWIDTH 960 0
DWIDTH 8 0
BBX 8 8 0 -1
BITMAP
08
08
FE
18
28
48
88
00
ENDCHAR
STARTCHAR 0x00b6
ENCODING 182
SWIDTH 960 0
DWIDTH 8 0
BBX 8 8 0 -1
BITMAP
10
10
FE
12
12
22
44
00
ENDCHAR
STARTCHAR 0x00b7
ENCODING 183
SWIDTH 960 0
DWIDTH 8 0
BBX 8 8 0 -1
BITMAP
10
10
FC
10
7E
08
08
00
ENDCHAR
STARTCHAR 0x00b8
ENCODING 184
SWIDTH 960 0
DWIDTH 8 0
BBX 8 8 0 -1
BITMAP
3E
22
22
42
02
04
08
00
ENDCHAR
STARTCHAR 0x00b9
ENCODING 185
SWIDTH 960 0
DWIDTH 8 0
BBX 8 8 0 -1
BITMAP
20
20
7E
88
08
08
30
00
ENDCHAR
STARTCHAR 0x00ba
ENCODING 186
SWIDTH 960 0
DWIDTH 8 0
BBX 8 8 0 -1
BITMAP
FE
02
02
02
02
02
FE
00
ENDCHAR
STARTCHAR 0x00bb
ENCODING 187
SWIDTH 960 0
DWIDTH 8 0
BBX 8 8 0 -1
BITMAP
44
44
FE
44
44
04
08
00
ENDCHAR
STARTCHAR 0x00bc
ENCODING 188
SWIDTH 960 0
DWIDTH 8 0
BBX 8 8 0 -1
BITMAP
02
7A
02
7A
02
04
78
00
ENDCHAR
STARTCHAR 0x00bd
ENCODING 189
SWIDTH 960 0
DWIDTH 8 0
BBX 8 8 0 -1
BITMAP
FE
02
04
08
10
28
C6
00
ENDCHAR
STARTCHAR 0x00be
ENCODING 190
SWIDTH 960 0
DWIDTH 8 0
BBX 8 8 0 -1
BITMAP
40
40
FE
42
44
40
3C
00
ENDCHAR
STARTCHAR 0x00bf
ENCODING 191
SWIDTH 960 0
DWIDTH 8 0
BBX 8 8 0 -1
BITMAP
00
42
42
22
02
04
18
00
ENDCHAR
STARTCHAR 0x00c0
ENCODING 192
SWIDTH 960 0
DWIDTH 8 0
BBX 8 8 0 -1
BITMAP
3E
22
62
92
0C
08
10
00
ENDCHAR
STARTCHAR 0x00c1
ENCODING 193
SWIDTH 960 0
DWIDTH 8 0
BBX 8 8 0 -1
BITMAP
04
38
08
FE
08
10
10
00
ENDCHAR
STARTCHAR 0x00c2
ENCODING 194
SWIDTH 960 0
DWIDTH 8 0
BBX 8 8 0 -1
BITMAP
52
52
52
02
02
04
38
00
ENDCHAR
STARTCHAR 0x00c3
ENCODING 195
SWIDTH 960 0
DWIDTH 8 0
BBX 8 8 0 -1
BITMAP
7C
00
FE
08
08
10
20
00
ENDCHAR
STARTCHAR 0x00c4
ENCODING 196
SWIDTH 960 0
DWIDTH 8 0
BBX 8 8 0 -1
BITMAP
20
20
20
30
28
24
20
00
ENDCHAR
STARTCHAR 0x00c5
ENCODING 197
SWIDTH 960 0
DWIDTH 8 0
BBX 8 8 0 -1
BITMAP
08
08
FE
08
08
10
20
00
ENDCHAR
STARTCHAR 0x00c6
ENCODING 198
SWIDTH 960 0
DWIDTH 8 0
BBX 8 8 0 -1
BITMAP
00
7C
00
00
00
FE
00
00
ENDCHAR
STARTCHAR 0x00c7
ENCODING 199
SWIDTH 960 0
DWIDTH 8 0
BBX 8 8 0 -1
BITMAP
FE
02
22
14
08
14
E2
00
ENDCHAR
STARTCHAR 0x00c8
ENCODING 200
SWIDTH 960 0
DWIDTH 8 0
BBX 8 8 0 -1
BITMAP
10
FE
04
08
38
D6
10
00
ENDCHAR
STARTCHAR 0x00c9
ENCODING 201
SWIDTH 960 0
DWIDTH 8 0
BBX 8 8 0 -1
BITMAP
02
02
04
04
08
10
60
00
ENDCHAR
STARTCHAR 0x00ca
ENCODING 202
SWIDTH 960 0
DWIDTH 8 0
BBX 8 8 0 -1
BITMAP
28
28
28
28
44
44
82
00
ENDCHAR
STARTCHAR 0x00cb
ENCODING 203
SWIDTH 960 0
DWIDTH 8 0
BBX 8 8 0 -1
BITMAP
80
80
80
FE
80
80
7E
00
ENDCHAR
STARTCHAR 0x00cc
ENCODING 204
SWIDTH 960 0
DWIDTH 8 0
BBX 8 8 0 -1
BITMAP
FE
02
02
04
04
08
70
00
ENDCHAR
STARTCHAR 0x00cd
ENCODING 205
SWIDTH 960 0
DWIDTH 8 0
BBX 8 8 0 -1
BITMAP
00
10
28
44
02
00
00
00
ENDCHAR
STARTCHAR 0x00ce
ENCODING 206
SWIDTH 960 0
DWIDTH 8 0
BBX 8 8 0 -1
BITMAP
10
10
FE
10
54
92
10
00
ENDCHAR
STARTCHAR 0x00cf
ENCODING 207
SWIDTH 960 0
DWIDTH 8 0
BBX 8 8 0 -1
BITMAP
FE
02
04
28
10
08
04
00
ENDCHAR
STARTCHAR 0x00d0
ENCODING 208
SWIDTH 960 0
DWIDTH 8 0
BBX 8 8 0 -1
BITMAP
38
04
00
18
04
30
0C
00
ENDCHAR
STARTCHAR 0x00d1
ENCODING 209
SWIDTH 960 0
DWIDTH 8 0
BBX 8 8 0 -1
BITMAP
10
10
20
24
44
FE
02
00
ENDCHAR
STARTCHAR 0x00d2
ENCODING 210
SWIDTH 960 0
DWIDTH 8 0
BBX 8 8 0 -1
BITMAP
00
02
22
14
08
74
02
00
ENDCHAR
STARTCHAR 0x00d3
ENCODING 211
SWIDTH 960 0
DWIDTH 8 0
BBX 8 8 0 -1
BITMAP
7C
20
20
FE
20
20
1C
00
ENDCHAR
STARTCHAR 0x00d4
ENCODING 212
SWIDTH 960 0
DWIDTH 8 0
BBX 8 8 0 -1
BITMAP
20
20
3E
E2
24
20
20
00
ENDCHAR
STARTCHAR 0x00d5
ENCODING 213
SWIDTH 960 0
DWIDTH 8 0
BBX 8 8 0 -1
BITMAP
7C
04
04
04
04
04
FE
00
ENDCHAR
STARTCHAR 0x00d6
ENCODING 214
SWIDTH 960 0
DWIDTH 8 0
BBX 8 8 0 -1
BITMAP
7E
02
02
7E
02
02
7E
00
ENDCHAR
STARTCHAR 0x00d7
ENCODING 215
SWIDTH 960 0
DWIDTH 8 0
BBX 8 8 0 -1
BITMAP
FE
00
FE
02
02
04
18
00
ENDCHAR
STARTCHAR 0x00d8
ENCODING 216
SWIDTH 960 0
DWIDTH 8 0
BBX 8 8 0 -1
BITMAP
42
42
42
42
02
04
18
00
ENDCHAR
STARTCHAR 0x00d9
ENCODING 217
SWIDTH 960 0
DWIDTH 8 0
BBX 8 8 0 -1
BITMAP
28
28
28
28
2A
4A
8C
00
ENDCHAR
STARTCHAR 0x00da
ENCODING 218
SWIDTH 960 0
DWIDTH 8 0
BBX 8 8 0 -1
BITMAP
40
40
40
40
42
44
78
00
ENDCHAR
STARTCHAR 0x00db
ENCODING 219
SWIDTH 960 0
DWIDTH 8 0
BBX 8 8 0 -1
BITMAP
FE
82
82
82
82
82
FE
00
ENDCHAR
STARTCHAR 0x00dc
ENCODING 220
SWIDTH 960 0
DWIDTH 8 0
BBX 8 8 0 -1
BITMAP
FE
82
82
02
02
04
18
00
ENDCHAR
STARTCHAR 0x00dd
ENCODING 221
SWIDTH 960 0
DWIDTH 8 0
BBX 8 8 0 -1
BITMAP
82
42
22
04
08
10
E0
00
ENDCHAR
STARTCHAR 0x00de
ENCODING 222
SWIDTH 960 0
DWIDTH 8 0
BBX 8 8 0 -1
BITMAP
28
28
28
00
00
00
00
00
ENDCHAR
STARTCHAR 0x00df
ENCODING 223
SWIDTH 960 0
DWIDTH 8 0
BBX 8 8 0 -1
BITMAP
38
28
38
00
00
00
00
00
ENDCHAR
ENDFONT
